<svg xmlns:rdf="http://www.w3.org/1999/02/22-rdf-syntax-ns#" xmlns="http://www.w3.org/2000/svg" height="60" width="50" version="1.1" xmlns:cc="http://creativecommons.org/ns#" xmlns:dc="http://purl.org/dc/elements/1.1/" viewBox="0 0 50 60">
 <path d="m6.88 0c-3.81 0-6.88 2.99-6.88 6.98v46.1c0 3.8 3.07 6.9 6.88 6.9h36.2c3.81 0 6.88-3.05 6.88-6.85v-46.2c0-3.8-3.07-6.85-6.88-6.85h-36.2zm23.8 5.25a3.71 3.7 0 0 1 3.71 3.7 3.71 3.7 0 0 1 -3.71 3.7 3.71 3.7 0 0 1 -3.71 -3.7 3.71 3.7 0 0 1 3.71 -3.7zm11.4 0a3.71 3.7 0 0 1 3.71 3.7 3.71 3.7 0 0 1 -3.71 3.7 3.71 3.7 0 0 1 -3.71 -3.7 3.71 3.7 0 0 1 3.71 -3.7zm-17.2 11.4a16.2 16.1 0 0 1 16.2 16.1 16.2 16.1 0 0 1 -16.2 16 16.2 16.1 0 0 1 -16.2 -16 16.2 16.1 0 0 1 16.2 -16.1zm0 2.96a13.2 13.2 0 0 0 -13.2 13.1 13.2 13.2 0 0 0 13.2 13.2 13.2 13.2 0 0 0 13.2 -13.2 13.2 13.2 0 0 0 -13.2 -13.1zm0 2.31a10.9 10.8 0 0 1 10.7 9.25c-1.52-0.638-3.31-0.812-6.95 0.518-3.05 1.51-5 1.55-8.18 0-2.63-1.33-4.43-1.14-6.37-0.418a10.9 10.8 0 0 1 10.8 -9.35z"/>
</svg>
